<svg xmlns="http://www.w3.org/2000/svg" pointer-events="none" class="leaflet-zoom-animated" width="1937" height="1214" viewBox="389 509 1937 1214" style="transform: translate3d(389px, 509px, 0px);"><g><path class="leaflet-interactive" stroke="black" stroke-opacity="1" stroke-width="2" stroke-linecap="round" stroke-linejoin="round" fill="#fff" fill-opacity="0.2" fill-rule="evenodd" d="M1112 1202L1111 1217L1105 1233L1100 1235L1090 1234L1088 1238L1089 1247L1081 1261L1082 1273L1086 1276L1088 1286L1093 1296L1096 1311L1094 1318L1097 1324L1102 1327L1106 1325L1116 1326L1123 1330L1127 1329L1130 1326L1132 1323L1132 1317L1137 1316L1145 1306L1150 1306L1160 1315L1163 1316L1168 1308L1174 1307L1178 1310L1179 1317L1186 1326L1187 1330L1193 1328L1193 1330L1187 1336L1188 1338L1198 1338L1204 1342L1216 1342L1220 1344L1222 1352L1219 1359L1214 1362L1212 1366L1211 1380L1222 1386L1229 1382L1233 1375L1242 1372L1248 1368L1251 1368L1252 1377L1250 1380L1248 1404L1252 1412L1258 1414L1265 1409L1268 1409L1272 1412L1275 1409L1277 1409L1280 1414L1278 1421L1283 1431L1282 1435L1275 1444L1272 1453L1268 1457L1272 1457L1271 1459L1267 1464L1262 1466L1261 1473L1255 1476L1253 1479L1253 1488L1259 1495L1265 1493L1275 1494L1288 1501L1295 1507L1295 1520L1291 1529L1291 1534L1310 1539L1314 1543L1314 1538L1321 1531L1329 1529L1334 1526L1338 1526L1345 1535L1357 1535L1358 1541L1368 1544L1372 1541L1373 1537L1380 1536L1382 1534L1381 1531L1377 1528L1377 1526L1382 1518L1385 1517L1407 1534L1416 1549L1421 1545L1426 1536L1424 1523L1409 1500L1409 1497L1422 1486L1433 1481L1433 1474L1427 1466L1424 1459L1430 1452L1446 1443L1462 1469L1465 1471L1482 1473L1493 1486L1508 1498L1515 1507L1518 1514L1518 1518L1520 1520L1524 1522L1530 1522L1533 1517L1534 1506L1546 1515L1552 1516L1561 1505L1565 1505L1582 1520L1590 1523L1604 1516L1611 1497L1611 1481L1613 1478L1639 1492L1644 1491L1648 1488L1650 1484L1649 1470L1641 1454L1642 1450L1653 1445L1662 1445L1677 1450L1681 1448L1680 1446L1683 1443L1685 1447L1689 1447L1696 1437L1687 1426L1688 1415L1696 1414L1693 1410L1694 1406L1692 1403L1684 1401L1679 1402L1675 1398L1672 1398L1667 1393L1665 1388L1663 1388L1663 1393L1662 1389L1659 1388L1659 1391L1657 1390L1657 1383L1652 1377L1650 1365L1653 1364L1658 1358L1659 1354L1662 1354L1666 1361L1672 1362L1675 1360L1677 1352L1680 1351L1684 1353L1687 1351L1689 1352L1698 1349L1705 1342L1704 1339L1707 1335L1709 1334L1711 1336L1714 1334L1717 1338L1718 1332L1715 1330L1719 1329L1727 1332L1737 1341L1738 1344L1746 1345L1746 1347L1743 1350L1747 1351L1759 1346L1774 1343L1776 1340L1775 1335L1777 1329L1780 1327L1789 1328L1795 1324L1798 1317L1810 1302L1820 1280L1825 1274L1870 1246L1878 1247L1884 1251L1887 1255L1887 1258L1898 1262L1914 1261L1926 1251L1927 1244L1926 1241L1923 1240L1921 1237L1918 1226L1919 1222L1929 1216L1938 1204L1941 1191L1938 1185L1937 1176L1930 1169L1930 1163L1933 1160L1946 1126L1954 1121L1966 1119L1977 1113L1974 1107L1970 1104L1972 1099L1984 1094L1985 1090L1990 1083L1996 1079L1998 1073L1996 1072L1995 1066L1991 1062L1989 1056L1994 1043L2004 1032L2000 1029L1998 1019L1991 1009L1991 1002L1988 996L1980 997L1977 995L1977 992L1980 988L1979 985L1972 979L1967 980L1965 978L1961 965L1957 959L1952 960L1948 955L1943 954L1945 949L1944 943L1921 941L1916 943L1909 942L1904 944L1897 944L1884 942L1873 947L1870 947L1868 945L1867 940L1858 935L1845 936L1844 934L1838 931L1814 927L1799 928L1795 923L1794 912L1788 907L1780 906L1786 898L1783 886L1781 885L1773 884L1755 886L1746 879L1732 878L1728 881L1723 881L1716 886L1705 883L1705 879L1688 872L1678 870L1667 872L1664 871L1654 862L1623 875L1612 873L1597 873L1588 875L1587 851L1584 846L1577 850L1569 861L1558 870L1539 859L1516 851L1511 843L1511 829L1508 824L1493 819L1490 811L1485 811L1477 819L1455 833L1448 839L1442 847L1405 867L1399 866L1397 863L1389 858L1374 852L1368 848L1357 867L1355 889L1333 891L1331 892L1331 897L1326 901L1309 909L1301 915L1292 913L1289 910L1286 906L1287 899L1280 891L1279 886L1263 888L1259 892L1248 891L1242 883L1241 862L1232 851L1219 843L1209 832L1190 820L1179 816L1167 813L1154 815L1147 814L1135 799L1125 791L1112 784L1087 787L1052 798L1047 801L1034 801L1023 798L1012 802L1007 799L993 798L991 793L986 797L983 795L978 800L966 805L962 805L958 800L954 800L953 802L948 804L944 803L941 799L935 796L930 798L899 800L886 803L869 811L863 816L862 822L852 823L849 825L850 830L853 830L854 833L861 836L864 839L855 848L855 852L859 857L859 863L855 868L838 877L822 881L821 884L825 896L819 906L812 912L819 918L824 930L822 932L828 936L834 935L842 930L856 930L860 932L862 937L858 946L861 953L869 957L871 961L855 975L848 982L847 985L842 985L836 991L841 998L850 1019L859 1026L862 1034L868 1037L870 1048L875 1057L885 1069L885 1076L889 1081L890 1087L886 1089L880 1096L880 1100L899 1120L905 1132L963 1075L968 1072L975 1073L979 1075L983 1081L990 1111L995 1121L995 1124L990 1135L990 1139L991 1142L997 1145L1001 1154L1001 1159L993 1167L983 1173L994 1179L1006 1191L1020 1196L1031 1197L1037 1203L1040 1204L1065 1181L1079 1174L1088 1178L1105 1191z" id="张家界市"/><path class="leaflet-interactive" stroke="#333" stroke-opacity="1" stroke-width="1" stroke-linecap="round" stroke-linejoin="round" stroke-dasharray="1,6" fill="#eee" fill-opacity="0.5" fill-rule="evenodd" d="M1650 1365L1651 1361L1649 1357L1643 1350L1640 1349L1632 1349L1628 1358L1616 1363L1608 1356L1602 1356L1597 1353L1594 1353L1586 1361L1563 1369L1560 1373L1562 1378L1555 1382L1548 1382L1540 1385L1538 1389L1531 1390L1528 1392L1522 1392L1515 1389L1502 1375L1494 1374L1484 1361L1482 1355L1483 1348L1488 1342L1497 1336L1500 1331L1493 1320L1491 1314L1493 1309L1516 1289L1518 1286L1518 1279L1504 1268L1493 1262L1485 1248L1472 1235L1464 1223L1464 1219L1454 1214L1448 1197L1446 1196L1445 1199L1441 1201L1422 1205L1415 1205L1416 1215L1438 1259L1438 1263L1429 1262L1406 1249L1395 1229L1374 1214L1367 1211L1362 1211L1356 1217L1350 1218L1347 1214L1343 1202L1330 1202L1328 1200L1326 1174L1307 1155L1301 1151L1290 1150L1277 1143L1274 1143L1273 1149L1268 1155L1260 1157L1255 1156L1254 1152L1262 1147L1262 1138L1257 1129L1254 1134L1247 1139L1238 1138L1230 1142L1225 1147L1218 1144L1214 1146L1191 1173L1188 1174L1184 1172L1179 1162L1173 1155L1157 1153L1144 1158L1118 1180L1117 1185L1120 1198L1112 1202L1111 1217L1105 1233L1100 1235L1090 1234L1088 1238L1089 1247L1081 1261L1082 1273L1086 1276L1088 1286L1091 1290L1095 1304L1096 1311L1094 1318L1099 1326L1104 1327L1106 1325L1111 1325L1116 1326L1123 1330L1127 1329L1132 1323L1132 1317L1137 1316L1145 1306L1150 1306L1160 1315L1163 1316L1168 1308L1174 1307L1178 1310L1179 1317L1186 1326L1187 1330L1193 1328L1193 1330L1187 1336L1188 1338L1198 1338L1204 1342L1216 1342L1220 1344L1222 1352L1219 1359L1214 1362L1212 1366L1211 1380L1222 1386L1229 1382L1233 1375L1242 1372L1248 1368L1251 1368L1252 1377L1250 1380L1248 1404L1252 1412L1258 1414L1265 1409L1268 1409L1272 1412L1275 1409L1277 1409L1280 1414L1278 1421L1283 1431L1282 1435L1275 1444L1272 1453L1268 1457L1272 1457L1271 1459L1267 1464L1262 1466L1261 1473L1255 1476L1253 1479L1253 1488L1259 1495L1265 1493L1275 1494L1292 1504L1295 1507L1296 1512L1295 1520L1291 1529L1291 1534L1310 1539L1314 1543L1314 1538L1321 1531L1329 1529L1334 1526L1338 1526L1345 1535L1357 1535L1358 1541L1368 1544L1372 1541L1373 1537L1380 1536L1382 1534L1381 1531L1377 1528L1377 1526L1382 1518L1385 1517L1407 1534L1416 1549L1421 1545L1426 1536L1424 1523L1409 1500L1409 1497L1422 1486L1433 1481L1433 1474L1427 1466L1424 1459L1430 1452L1446 1443L1462 1469L1465 1471L1482 1473L1493 1486L1508 1498L1515 1507L1518 1514L1518 1518L1520 1520L1524 1522L1530 1522L1533 1517L1534 1506L1546 1515L1552 1516L1561 1505L1565 1505L1582 1520L1590 1523L1594 1522L1604 1516L1608 1508L1611 1497L1611 1481L1613 1478L1639 1492L1644 1491L1648 1488L1650 1484L1649 1470L1641 1454L1642 1450L1653 1445L1662 1445L1677 1450L1681 1448L1680 1446L1683 1443L1685 1447L1689 1447L1696 1437L1687 1426L1688 1415L1696 1414L1693 1410L1694 1406L1690 1402L1679 1402L1675 1398L1672 1398L1667 1393L1665 1388L1663 1388L1663 1393L1662 1389L1659 1388L1659 1391L1657 1390L1657 1383L1652 1377L1650 1367z" id="永定区"/><path class="leaflet-interactive" stroke="#333" stroke-opacity="1" stroke-width="1" stroke-linecap="round" stroke-linejoin="round" stroke-dasharray="1,6" fill="#eee" fill-opacity="0.5" fill-rule="evenodd" d="M1448 1101L1442 1103L1434 1109L1425 1120L1419 1120L1411 1105L1409 1091L1402 1082L1397 1079L1396 1068L1391 1068L1387 1073L1389 1085L1387 1090L1378 1094L1372 1093L1366 1083L1363 1082L1359 1086L1352 1098L1335 1101L1329 1104L1324 1104L1306 1110L1275 1113L1262 1119L1257 1129L1262 1138L1262 1147L1254 1152L1254 1154L1258 1157L1268 1155L1273 1149L1274 1143L1277 1143L1290 1150L1301 1151L1307 1155L1326 1174L1328 1200L1330 1202L1343 1202L1347 1214L1350 1218L1356 1217L1362 1211L1367 1211L1374 1214L1395 1229L1406 1249L1429 1262L1438 1263L1435 1251L1416 1215L1415 1205L1422 1205L1441 1201L1445 1199L1446 1196L1448 1197L1452 1193L1458 1191L1474 1190L1478 1187L1481 1181L1487 1177L1495 1176L1516 1169L1527 1161L1536 1147L1534 1139L1531 1137L1518 1137L1504 1128L1478 1128L1461 1122L1453 1114L1452 1104L1450 1101z" id="武陵源区"/><path class="leaflet-interactive" stroke="#333" stroke-opacity="1" stroke-width="1" stroke-linecap="round" stroke-linejoin="round" stroke-dasharray="1,6" fill="#eee" fill-opacity="0.5" fill-rule="evenodd" d="M1650 1365L1653 1364L1658 1358L1659 1354L1662 1354L1666 1361L1672 1362L1675 1360L1677 1352L1680 1351L1684 1353L1687 1351L1689 1352L1698 1349L1705 1342L1704 1339L1707 1335L1709 1334L1711 1336L1714 1334L1717 1338L1718 1332L1715 1330L1719 1329L1727 1332L1737 1341L1738 1344L1746 1345L1746 1347L1743 1350L1747 1351L1759 1346L1774 1343L1776 1340L1775 1335L1777 1329L1780 1327L1789 1328L1795 1324L1798 1317L1810 1302L1820 1280L1825 1274L1870 1246L1878 1247L1884 1251L1887 1255L1887 1258L1898 1262L1914 1261L1926 1251L1927 1244L1926 1241L1923 1240L1921 1237L1918 1226L1919 1222L1929 1216L1938 1204L1941 1191L1938 1185L1937 1176L1930 1169L1930 1163L1933 1160L1946 1126L1954 1121L1966 1119L1977 1113L1974 1107L1970 1104L1972 1099L1984 1094L1985 1090L1990 1083L1996 1079L1998 1073L1996 1072L1995 1066L1991 1062L1989 1056L1994 1043L2004 1032L2000 1029L1998 1019L1991 1009L1991 1002L1988 996L1980 997L1977 995L1977 992L1980 988L1979 985L1972 979L1967 980L1965 978L1961 965L1957 959L1952 960L1948 955L1943 954L1945 949L1944 943L1921 941L1916 943L1909 942L1904 944L1897 944L1884 942L1873 947L1870 947L1868 945L1867 940L1858 935L1845 936L1844 934L1838 931L1814 927L1799 928L1795 923L1794 912L1788 907L1780 906L1786 898L1783 886L1781 885L1773 884L1755 886L1746 879L1732 878L1728 881L1723 881L1716 886L1705 883L1705 879L1688 872L1678 870L1667 872L1664 871L1654 862L1652 862L1623 875L1612 873L1597 873L1588 875L1589 888L1583 899L1580 909L1582 922L1581 927L1578 931L1562 931L1548 933L1528 941L1520 940L1510 954L1492 963L1489 963L1483 968L1476 971L1468 978L1468 982L1474 987L1484 988L1488 991L1489 1005L1480 1019L1474 1041L1460 1068L1458 1078L1448 1101L1450 1101L1452 1104L1453 1114L1455 1117L1465 1124L1478 1128L1504 1128L1518 1137L1531 1137L1534 1139L1536 1144L1536 1147L1527 1161L1516 1169L1495 1176L1487 1177L1481 1181L1478 1187L1474 1190L1458 1191L1452 1193L1448 1197L1454 1214L1464 1219L1464 1223L1472 1235L1485 1248L1493 1262L1504 1268L1518 1279L1518 1286L1516 1289L1493 1309L1491 1314L1493 1320L1500 1331L1499 1334L1488 1342L1483 1348L1482 1355L1484 1361L1494 1374L1502 1375L1515 1389L1522 1392L1528 1392L1531 1390L1538 1389L1540 1385L1548 1382L1555 1382L1561 1379L1562 1378L1560 1373L1563 1369L1586 1361L1594 1353L1597 1353L1602 1356L1608 1356L1616 1363L1628 1358L1632 1349L1640 1349L1645 1352L1651 1361z" id="慈利县"/><path class="leaflet-interactive" stroke="#333" stroke-opacity="1" stroke-width="1" stroke-linecap="round" stroke-linejoin="round" stroke-dasharray="1,6" fill="#eee" fill-opacity="0.5" fill-rule="evenodd" d="M1112 1202L1120 1198L1117 1185L1118 1180L1144 1158L1157 1153L1173 1155L1179 1162L1184 1172L1186 1174L1191 1173L1214 1146L1218 1144L1225 1147L1230 1142L1238 1138L1247 1139L1254 1134L1262 1119L1275 1113L1306 1110L1324 1104L1329 1104L1335 1101L1352 1098L1359 1086L1363 1082L1366 1083L1372 1093L1378 1094L1387 1090L1389 1085L1387 1073L1391 1068L1396 1068L1397 1079L1400 1080L1409 1091L1411 1105L1417 1118L1419 1120L1425 1120L1434 1109L1442 1103L1448 1101L1458 1078L1460 1068L1474 1041L1480 1019L1489 1005L1488 991L1484 988L1474 987L1468 982L1468 978L1476 971L1483 968L1489 963L1492 963L1510 954L1520 940L1528 941L1548 933L1562 931L1578 931L1581 927L1582 919L1580 909L1583 899L1589 888L1586 848L1584 846L1581 847L1562 867L1558 870L1555 869L1539 859L1516 851L1511 843L1511 829L1508 824L1493 819L1490 811L1485 811L1477 819L1450 837L1442 847L1405 867L1399 866L1397 863L1389 858L1374 852L1368 848L1357 867L1355 889L1333 891L1331 892L1331 897L1326 901L1309 909L1301 915L1292 913L1289 910L1286 906L1287 899L1280 891L1279 886L1263 888L1259 892L1248 891L1242 883L1241 862L1232 851L1219 843L1209 832L1190 820L1179 816L1167 813L1154 815L1147 814L1135 799L1125 791L1112 784L1087 787L1052 798L1047 801L1034 801L1023 798L1012 802L1007 799L993 798L991 793L986 797L983 795L978 800L966 805L962 805L958 800L954 800L953 802L948 804L944 803L941 799L935 796L930 798L899 800L878 806L866 813L863 816L862 822L852 823L849 825L850 830L853 830L854 833L861 836L864 839L855 848L855 852L859 857L859 863L855 868L838 877L822 881L821 884L825 896L819 906L812 912L819 918L824 930L822 932L828 936L834 935L842 930L856 930L860 932L862 937L858 946L861 953L869 957L871 961L855 975L848 982L847 985L842 985L836 991L841 998L850 1019L859 1026L862 1034L868 1037L870 1048L875 1057L885 1069L885 1076L889 1081L890 1087L886 1089L880 1096L880 1100L899 1120L905 1132L963 1075L968 1072L975 1073L979 1075L983 1081L990 1111L995 1121L995 1124L990 1135L990 1139L991 1142L997 1145L1001 1154L1001 1159L993 1167L983 1173L994 1179L1006 1191L1020 1196L1031 1197L1037 1203L1040 1204L1065 1181L1079 1174L1088 1178L1105 1191z" id="桑植县"/></g></svg>