<svg xmlns="http://www.w3.org/2000/svg" pointer-events="none" class="leaflet-zoom-animated" width="1937" height="1214" viewBox="389 509 1937 1214" style="transform: translate3d(389px, 509px, 0px);"><g><path class="leaflet-interactive" stroke="black" stroke-opacity="1" stroke-width="2" stroke-linecap="round" stroke-linejoin="round" fill="#eee" fill-opacity="0.5" fill-rule="evenodd" d="M1760 1138L1755 1137L1754 1133L1757 1127L1774 1120L1775 1114L1781 1109L1784 1102L1788 1101L1791 1098L1793 1090L1790 1088L1788 1080L1783 1075L1781 1066L1785 1053L1791 1043L1801 1033L1800 1029L1796 1027L1794 1024L1792 1011L1783 999L1784 997L1781 983L1768 983L1764 979L1763 975L1767 971L1766 966L1755 956L1749 959L1748 958L1746 950L1735 928L1729 930L1723 923L1716 921L1718 909L1715 905L1704 905L1686 902L1673 907L1667 904L1660 907L1632 905L1617 912L1613 912L1610 911L1609 904L1606 900L1594 895L1579 897L1576 893L1567 889L1549 887L1533 883L1511 885L1508 883L1505 862L1496 855L1489 855L1485 853L1486 850L1491 847L1494 843L1494 836L1488 824L1471 823L1450 826L1443 818L1437 815L1418 814L1412 818L1403 819L1398 824L1394 825L1380 821L1378 818L1379 815L1355 806L1341 803L1325 805L1321 804L1316 801L1312 795L1306 792L1300 793L1295 797L1262 810L1254 808L1234 809L1230 807L1213 810L1214 828L1211 837L1204 848L1202 858L1205 876L1203 883L1199 889L1157 892L1129 903L1117 902L1104 921L1074 935L1044 955L1044 961L1052 968L1067 970L1072 974L1073 994L1061 1014L1047 1057L1040 1065L1033 1082L1030 1097L1015 1129L1019 1130L1021 1134L1022 1148L1025 1153L1040 1162L1058 1168L1099 1169L1115 1181L1133 1181L1137 1183L1140 1190L1132 1209L1112 1225L1082 1236L1071 1237L1063 1243L1052 1255L1029 1257L1021 1260L1016 1265L1019 1270L1021 1284L1024 1289L1036 1295L1040 1305L1049 1320L1068 1338L1079 1358L1083 1361L1089 1362L1094 1365L1111 1377L1114 1381L1115 1386L1111 1396L1079 1423L1076 1431L1088 1455L1087 1459L1075 1470L1071 1471L1065 1479L1064 1489L1066 1498L1081 1515L1092 1518L1101 1524L1110 1537L1120 1541L1128 1541L1142 1537L1143 1533L1154 1529L1157 1526L1166 1528L1169 1527L1176 1522L1174 1514L1182 1506L1206 1497L1210 1497L1216 1490L1225 1485L1233 1491L1242 1491L1251 1499L1257 1499L1270 1493L1276 1481L1287 1480L1294 1484L1300 1492L1302 1497L1302 1503L1305 1502L1312 1493L1314 1487L1318 1487L1323 1497L1329 1499L1337 1496L1341 1484L1349 1485L1364 1483L1369 1480L1377 1474L1379 1470L1377 1467L1381 1460L1384 1459L1387 1462L1389 1462L1390 1459L1395 1464L1398 1458L1393 1454L1393 1452L1399 1451L1411 1456L1422 1466L1427 1474L1437 1474L1438 1476L1432 1481L1433 1482L1440 1483L1455 1475L1476 1472L1479 1467L1480 1452L1485 1449L1502 1449L1506 1445L1510 1435L1529 1411L1537 1392L1549 1374L1569 1361L1579 1357L1612 1334L1624 1336L1635 1345L1639 1353L1652 1357L1666 1358L1674 1356L1683 1351L1692 1341L1693 1329L1688 1327L1685 1322L1680 1311L1680 1307L1682 1301L1695 1292L1705 1281L1713 1264L1713 1257L1710 1252L1705 1233L1696 1224L1696 1219L1699 1217L1701 1213L1705 1199L1720 1165L1731 1158L1748 1155L1760 1149L1763 1146L1762 1143z" id="慈利县"/></g></svg>