<svg xmlns="http://www.w3.org/2000/svg" pointer-events="none" class="leaflet-zoom-animated" width="1937" height="1214" viewBox="389 509 1937 1214" style="transform: translate3d(389px, 509px, 0px);"><g><path class="leaflet-interactive" stroke="black" stroke-opacity="1" stroke-width="2" stroke-linecap="round" stroke-linejoin="round" fill="#eee" fill-opacity="0.5" fill-rule="evenodd" d="M1283 1461L1294 1454L1294 1450L1291 1447L1292 1430L1296 1425L1324 1404L1329 1398L1347 1391L1357 1390L1370 1395L1378 1404L1385 1418L1391 1421L1395 1419L1428 1381L1433 1379L1442 1382L1455 1372L1461 1370L1471 1372L1476 1370L1487 1360L1496 1343L1503 1341L1511 1336L1521 1333L1563 1328L1598 1318L1622 1314L1632 1296L1638 1291L1643 1293L1650 1306L1660 1307L1672 1302L1675 1295L1673 1277L1678 1270L1685 1270L1686 1287L1694 1290L1703 1303L1706 1323L1713 1338L1718 1344L1726 1344L1739 1329L1750 1320L1758 1317L1773 1285L1776 1270L1783 1253L1790 1245L1804 1202L1816 1182L1815 1162L1810 1158L1795 1156L1787 1149L1787 1143L1817 1123L1847 1109L1860 1090L1872 1091L1900 1080L1942 1077L1946 1071L1948 1060L1945 1046L1947 1036L1952 1029L1957 1016L1954 959L1951 956L1947 958L1933 971L1930 978L1926 980L1920 987L1912 991L1890 977L1857 966L1851 960L1847 952L1846 946L1848 935L1843 925L1839 922L1822 919L1817 907L1811 908L1799 919L1787 925L1758 947L1750 958L1735 967L1728 969L1725 973L1703 985L1689 985L1675 974L1654 965L1650 961L1646 960L1642 963L1640 970L1629 986L1629 1011L1627 1017L1620 1020L1595 1021L1593 1022L1592 1030L1549 1054L1542 1053L1533 1048L1529 1041L1531 1032L1521 1020L1520 1014L1516 1013L1505 1015L1497 1017L1492 1021L1486 1022L1475 1020L1470 1015L1467 1009L1467 988L1465 979L1453 964L1435 952L1420 937L1405 929L1393 920L1372 912L1360 911L1338 913L1332 911L1316 891L1302 879L1284 869L1271 870L1233 877L1198 889L1192 893L1172 893L1169 891L1157 890L1149 894L1142 894L1135 890L1116 889L1113 886L1114 885L1112 882L1105 887L1100 885L1096 890L1076 899L1072 899L1064 891L1052 897L1046 895L1033 887L1010 891L982 892L952 900L936 910L932 914L927 924L915 924L912 928L913 935L915 936L917 934L918 938L928 942L933 947L933 949L923 956L919 962L919 965L926 972L926 979L920 988L900 999L881 1006L873 1007L872 1010L877 1024L877 1028L869 1042L859 1051L869 1059L875 1070L876 1076L874 1078L882 1084L890 1083L902 1076L910 1075L921 1076L927 1079L929 1089L925 1093L925 1098L928 1109L939 1114L943 1120L940 1124L920 1139L910 1149L908 1154L901 1154L898 1156L893 1164L900 1172L904 1184L909 1190L911 1200L925 1212L929 1222L932 1224L936 1224L939 1228L939 1238L941 1242L964 1275L963 1282L969 1289L970 1297L964 1301L956 1310L955 1316L976 1339L983 1344L990 1362L1072 1281L1079 1277L1090 1278L1095 1281L1101 1290L1105 1303L1110 1332L1118 1346L1118 1350L1110 1366L1110 1371L1112 1375L1123 1383L1126 1393L1126 1400L1118 1409L1102 1418L1101 1421L1106 1424L1117 1427L1125 1434L1133 1444L1141 1449L1153 1452L1165 1452L1179 1463L1184 1462L1217 1431L1237 1420L1250 1426L1267 1438L1273 1445z" id="桑植县"/></g></svg>