<svg xmlns="http://www.w3.org/2000/svg" pointer-events="none" class="leaflet-zoom-animated" width="1937" height="1214" viewBox="213 784 1937 1214" style="transform: translate3d(213px, 784px, 0px);"><g><path class="leaflet-interactive" stroke="black" stroke-opacity="1" stroke-width="2" stroke-linecap="round" stroke-linejoin="round" fill="#fff" fill-opacity="0.2" fill-rule="evenodd" d="M1442 1184L1433 1184L1419 1192L1387 1217L1370 1233L1352 1258L1339 1261L1329 1258L1320 1251L1306 1229L1295 1199L1290 1159L1286 1144L1260 1107L1249 1100L1239 1098L1237 1088L1238 1058L1236 1051L1216 1051L1206 1057L1201 1070L1205 1099L1206 1120L1200 1140L1165 1155L1152 1155L1138 1150L1115 1114L1102 1110L1086 1123L1074 1149L1058 1173L1033 1179L994 1186L992 1185L972 1194L963 1194L949 1197L936 1202L873 1218L833 1224L784 1227L772 1229L766 1232L744 1236L720 1250L707 1253L697 1263L687 1284L678 1298L688 1311L698 1331L700 1341L700 1359L698 1369L668 1387L666 1396L671 1403L683 1409L691 1409L707 1403L724 1399L736 1389L743 1377L743 1360L747 1353L751 1351L761 1354L811 1381L855 1384L879 1401L907 1431L954 1476L961 1538L963 1579L969 1588L980 1591L1022 1588L1032 1604L1034 1618L1040 1637L1049 1651L1076 1649L1101 1626L1118 1623L1146 1637L1230 1697L1259 1750L1263 1754L1275 1775L1291 1785L1358 1819L1369 1827L1388 1832L1403 1830L1403 1814L1393 1784L1381 1769L1343 1695L1317 1640L1310 1602L1318 1595L1340 1599L1355 1596L1378 1588L1414 1584L1429 1574L1435 1566L1440 1566L1443 1568L1457 1552L1482 1545L1511 1541L1527 1543L1547 1540L1562 1528L1577 1504L1599 1489L1633 1485L1716 1454L1744 1435L1758 1423L1771 1408L1793 1368L1796 1354L1787 1335L1775 1329L1755 1329L1739 1333L1723 1329L1712 1322L1696 1307L1681 1297L1668 1293L1627 1295L1563 1292L1511 1276L1471 1249L1462 1235L1460 1196L1453 1184L1445 1184z" id="武陵源区"/></g></svg>