<svg xmlns="http://www.w3.org/2000/svg" pointer-events="none" class="leaflet-zoom-animated" width="1937" height="1214" viewBox="213 784 1937 1214" style="transform: translate3d(213px, 784px, 0px);"><g><path class="leaflet-interactive" stroke="black" stroke-opacity="1" stroke-width="2" stroke-linecap="round" stroke-linejoin="round" fill="#fff" fill-opacity="0.2" fill-rule="evenodd" d="M1755 1494L1756 1485L1752 1477L1740 1463L1735 1461L1719 1461L1710 1479L1697 1486L1686 1488L1683 1488L1670 1476L1659 1476L1653 1473L1648 1468L1646 1468L1642 1469L1634 1475L1629 1482L1600 1492L1580 1501L1574 1508L1577 1520L1567 1527L1564 1528L1551 1526L1541 1532L1533 1534L1529 1541L1509 1547L1484 1542L1471 1523L1458 1514L1442 1510L1422 1486L1419 1473L1419 1459L1429 1448L1434 1446L1447 1436L1453 1426L1435 1392L1440 1380L1444 1375L1485 1342L1491 1328L1490 1321L1455 1294L1445 1292L1440 1288L1428 1264L1397 1234L1384 1213L1381 1201L1371 1195L1366 1194L1357 1184L1356 1169L1351 1158L1349 1156L1346 1156L1336 1165L1317 1167L1314 1169L1298 1173L1288 1171L1284 1174L1287 1193L1319 1257L1325 1265L1330 1280L1330 1288L1322 1289L1313 1287L1266 1261L1244 1221L1202 1191L1188 1184L1179 1186L1166 1198L1153 1199L1148 1191L1144 1175L1140 1167L1126 1169L1119 1169L1113 1167L1110 1162L1106 1111L1068 1074L1056 1065L1037 1064L1009 1050L1002 1049L1000 1053L1000 1062L997 1068L991 1073L970 1078L964 1074L961 1071L962 1066L978 1057L979 1052L977 1039L968 1022L962 1030L950 1040L944 1042L930 1039L921 1042L910 1053L903 1057L889 1052L883 1055L836 1109L830 1111L826 1111L822 1108L812 1087L800 1074L783 1068L768 1069L743 1079L726 1095L696 1117L690 1124L688 1133L690 1146L689 1149L693 1153L693 1159L684 1165L677 1167L678 1185L664 1228L653 1233L645 1233L640 1231L632 1233L629 1241L632 1254L631 1263L620 1274L616 1285L615 1297L618 1308L625 1316L629 1336L637 1343L641 1355L645 1372L643 1399L652 1415L659 1418L663 1417L666 1414L678 1413L687 1415L696 1422L700 1423L708 1421L718 1408L715 1401L718 1397L727 1395L743 1375L753 1375L758 1378L774 1394L781 1394L789 1379L796 1379L802 1377L810 1382L813 1398L826 1415L828 1424L830 1424L836 1419L839 1419L840 1421L834 1427L829 1435L829 1439L835 1441L843 1439L850 1440L855 1441L861 1447L886 1447L894 1451L898 1467L891 1481L880 1488L875 1514L877 1522L886 1527L895 1535L909 1529L916 1517L927 1508L934 1506L939 1507L946 1501L956 1498L957 1518L955 1522L949 1555L949 1567L950 1572L954 1577L954 1580L958 1586L964 1591L970 1591L984 1581L997 1586L1005 1582L1009 1582L1014 1590L1010 1599L1011 1605L1019 1618L1017 1632L1006 1647L1002 1659L991 1677L996 1677L998 1680L997 1682L986 1692L978 1695L977 1707L959 1720L960 1738L964 1747L971 1753L976 1754L983 1750L995 1748L1004 1751L1031 1765L1039 1771L1043 1777L1045 1786L1044 1804L1036 1821L1036 1832L1045 1833L1073 1841L1082 1848L1082 1838L1087 1831L1096 1824L1108 1822L1125 1814L1129 1816L1143 1832L1169 1835L1170 1846L1195 1850L1202 1837L1215 1835L1217 1833L1216 1826L1210 1820L1207 1819L1207 1816L1218 1799L1224 1797L1239 1806L1252 1820L1268 1830L1277 1840L1286 1860L1295 1853L1301 1846L1305 1835L1304 1821L1298 1803L1283 1783L1277 1773L1271 1758L1273 1753L1290 1740L1307 1733L1319 1725L1319 1712L1308 1694L1302 1680L1318 1663L1342 1650L1347 1650L1356 1662L1377 1702L1397 1708L1408 1706L1417 1708L1439 1734L1451 1742L1470 1759L1484 1778L1489 1790L1490 1799L1501 1807L1515 1806L1519 1803L1521 1797L1519 1777L1522 1776L1532 1780L1538 1787L1547 1793L1557 1795L1563 1792L1577 1773L1583 1773L1590 1776L1618 1803L1625 1807L1634 1809L1643 1807L1653 1802L1662 1794L1671 1778L1675 1758L1676 1725L1680 1720L1687 1721L1695 1725L1711 1737L1732 1747L1742 1745L1750 1740L1754 1730L1753 1713L1751 1703L1740 1682L1736 1671L1737 1663L1747 1657L1767 1652L1778 1653L1793 1660L1808 1663L1815 1660L1815 1655L1820 1648L1822 1649L1824 1658L1831 1658L1837 1645L1846 1638L1846 1636L1831 1621L1828 1615L1829 1593L1845 1591L1839 1583L1841 1573L1836 1568L1822 1565L1816 1568L1812 1566L1811 1562L1807 1561L1805 1558L1795 1558L1787 1548L1784 1539L1780 1538L1782 1543L1781 1548L1779 1547L1778 1542L1775 1540L1773 1540L1773 1544L1768 1543L1767 1529L1762 1520L1758 1516L1757 1510L1754 1506L1754 1503L1757 1499L1754 1496z" id="永定区"/></g></svg>